<?xml version="1.0" encoding="utf-8"?>
<!-- Generator: Adobe Illustrator 16.0.0, SVG Export Plug-In . SVG Version: 6.00 Build 0)  -->
<!DOCTYPE svg PUBLIC "-//W3C//DTD SVG 1.1//EN" "http://www.w3.org/Graphics/SVG/1.1/DTD/svg11.dtd">
<svg version="1.1" id="Layer_1" xmlns="http://www.w3.org/2000/svg" xmlns:xlink="http://www.w3.org/1999/xlink" x="0px" y="0px"
	 width="36px" height="36px" viewBox="238 238 36 36" enable-background="new 238 238 36 36" xml:space="preserve">
<g>
	<rect x="264.017" y="259.532" fill="#FFFFFF" width="0.844" height="0.843"/>
	<rect x="247.141" y="259.532" fill="#FFFFFF" width="0.844" height="0.843"/>
	<path fill="#FFFFFF" d="M251.134,259.953c0,2.684,2.184,4.865,4.866,4.865c2.684,0,4.865-2.182,4.865-4.865
		c0-2.683-2.182-4.865-4.865-4.865C253.317,255.088,251.134,257.271,251.134,259.953z M260.021,259.953
		c0,2.217-1.804,4.021-4.021,4.021c-2.217,0-4.022-1.805-4.022-4.021s1.806-4.021,4.022-4.021
		C258.218,255.932,260.021,257.736,260.021,259.953z"/>
	<path fill="#FFFFFF" d="M255.578,256.662v0.306c-0.751,0.189-1.309,0.87-1.309,1.679v0.211c0,0.767,0.57,1.4,1.309,1.502v1.682
		c-0.275-0.15-0.465-0.438-0.465-0.797h-0.844c0,0.838,0.566,1.508,1.309,1.695v0.305h0.844v-0.305
		c0.752-0.189,1.309-0.871,1.309-1.68v-0.211c0-0.766-0.57-1.4-1.309-1.503v-1.68c0.275,0.15,0.465,0.438,0.465,0.795h0.844
		c0-0.838-0.566-1.507-1.309-1.693v-0.306H255.578z M255.578,259.499c-0.27-0.089-0.465-0.343-0.465-0.642v-0.211
		c0-0.336,0.188-0.63,0.465-0.78V259.499z M256.887,261.049v0.211c0,0.336-0.188,0.631-0.465,0.781v-1.633
		C256.691,260.496,256.887,260.75,256.887,261.049z"/>
	<polygon fill="#FFFFFF" points="241.6,251.601 241.6,268.307 246.296,268.307 246.296,267.463 242.443,267.463 242.443,252.444 
		269.557,252.444 269.557,267.463 247.14,267.463 247.14,268.307 270.4,268.307 270.4,251.601 	"/>
	<path fill="#FFFFFF" d="M266.683,266.619l-0.044-0.463c-0.093-0.971,0.675-1.816,1.651-1.816h0.423v-8.774h-0.423
		c-0.915,0-1.659-0.744-1.659-1.659c0-0.099,0.004-0.112,0.052-0.618h-4.371v0.844h3.485c0.103,1.135,0.964,2.054,2.072,2.242v7.159
		c-1.108,0.188-1.97,1.107-2.072,2.242h-19.595c-0.102-1.135-0.963-2.055-2.071-2.242v-7.159c1.108-0.188,1.97-1.107,2.071-2.242
		h15.266v-0.844h-16.151l0.044,0.462c0.094,0.972-0.674,1.815-1.651,1.815h-0.422v8.774h0.422c0.915,0,1.66,0.744,1.66,1.66
		c0,0.1-0.004,0.111-0.053,0.619H266.683z"/>
	<path fill="#FFFFFF" d="M262.491,247.472l-0.199-0.419l-4.865,2.92l0.435,0.724l4.105-2.465c0.675,0.929,1.89,1.266,2.93,0.858
		l0.878,1.462l0.723-0.435l-1.293-2.155l-0.361,0.218C263.997,248.687,262.908,248.347,262.491,247.472z"/>
	<polygon fill="#FFFFFF" points="264.321,244.851 267.742,250.552 268.466,250.117 264.61,243.693 254.147,249.973 254.582,250.696 
			"/>
</g>
</svg>
