<?xml version="1.0" encoding="utf-8"?>
<!-- Generator: Adobe Illustrator 16.0.0, SVG Export Plug-In . SVG Version: 6.00 Build 0)  -->
<!DOCTYPE svg PUBLIC "-//W3C//DTD SVG 1.1//EN" "http://www.w3.org/Graphics/SVG/1.1/DTD/svg11.dtd">
<svg version="1.1" id="Capa_1" xmlns="http://www.w3.org/2000/svg" xmlns:xlink="http://www.w3.org/1999/xlink" x="0px" y="0px"
	 width="1202.457px" height="790.993px" viewBox="2764.086 -1.463 1202.457 790.993"
	 enable-background="new 2764.086 -1.463 1202.457 790.993" xml:space="preserve">
<rect x="2764.086" display="none" width="1202.457" height="789.53"/>
<g>
	<path fill="#FFFFFF" d="M3161.604,478.803c3.473,5.889,18.879,9.855,32.379,6.586c76.64-34.129,88.476-140.943,89.268-145.879
		c1.464-9.935-5.152-27.884-15.089-29.35c-9.937-1.461-24.001,3.57-25.462,13.507c0.158,0.896-16.37,104.146-74.682,130.261
		C3159.372,459.026,3156.504,470.165,3161.604,478.803z"/>
	<path fill="#FFFFFF" d="M3099.487,429.561c3.473,5.889,10.731,10.705,17.553,10.283c1.455-0.078,8.437-1.486,9.834-1.908
		c76.638-34.133,92.309-145.99,93.101-150.926c1.464-9.938-4.516-24.938-14.45-26.398c-9.934-1.465-23.479,3.877-24.944,13.813
		c0.157,0.896-16.369,104.146-74.679,130.262C3097.259,409.782,3094.386,420.921,3099.487,429.561z"/>
</g>
<path fill="#FFFFFF" d="M3761.868,742.682l-1.208-1.633l-468.326-582.408c-20.215-30.4-60.447-40.079-92.277-22.204l-113.537,38.71
	c-7.23,2.578-15.199,2.09-22.061-1.347c-6.467-3.381-11.273-9.252-13.313-16.256l-40.834-134.375
	c-1.58-10.791-9.41-19.615-19.936-22.471c-14.139-2.871-28.584,3.276-36.32,15.455l-30.719,43.823
	c-14.551-20.429-42.902-25.197-63.334-10.65c-4.213,3-7.883,6.7-10.854,10.935L2777.02,163.16
	c-14.404,20.534-9.43,48.854,11.104,63.256c4.234,2.971,8.947,5.194,13.93,6.58l-30.721,43.821
	c-8.811,11.425-9.662,27.103-2.137,39.415c6.166,9.23,17.295,13.831,28.176,11.646l140.244-7.439
	c7.279-0.475,14.438,2.044,19.82,6.967c5.557,5.227,8.723,12.504,8.766,20.131l2.332,119.932
	c-5.619,35.779,17.068,69.91,52.234,78.578l707.206,241.631c0,0,21.107,5.721,31.774-2.946
	C3778.665,769.362,3764.983,747.956,3761.868,742.682z M3001.322,228.172c-0.855,0.976-1.551,2.097-2.055,3.33
	c-1.758,2.754-3.623,5.442-5.604,8.055c-1.502,2.328-3.092,4.592-4.744,6.804c-1.395,1.138-2.469,2.552-3.211,4.117
	c-7.881,9.646-17.221,18.022-27.691,24.833c-7.262-3.923-15.535-5.797-23.922-5.297l-111.721,5.955
	c0.258-1.006,0.709-1.949,1.328-2.778l29.07-41.47l78.105,20.693c10.186,2.616,15.109-4.334,16.129-10.843
	c0.814-5.188-0.879-13.321-10.707-16.29l-82.174-24.645c-0.723-0.372-15.531-5.563-15.531-5.563
	c-8.938-3.676-8.178-13.792-3.666-20.271c0.777-1.119,45.691-65.553,45.691-65.553c3.787-5.39,13.77-7.917,19.158-4.128
	c1.115,0.783,12.01,16.334,12.01,16.334c0.576,0.813,46.627,66.938,46.627,66.938c6.684,7.709,14.596,6.33,19.115,5.549
	c6.49-1.125,10.844-7.3,9.719-13.792c-0.297-1.713-0.967-3.342-1.959-4.772l-46.438-66.351l28.639-41.104
	c0.615-1.015,1.459-1.868,2.467-2.493l32.443,106.698c2.363,7.996,6.896,15.087,12.99,20.557
	C3012.602,205.206,3007.844,217.18,3001.322,228.172z M3549.227,628.436c-8.848,12.055-10.854,23.08-11.68,37.705l-484.313-163.773
	c-18.67-6.91-27.359-17.275-25.123-39.318c-0.059-0.529-1.984-107.916-1.984-107.916c-0.109-8.975-2.449-16.795-6.932-24.379
	c7.512-5.24,9.625-8.461,16.117-14.879l33.371,61.523c2.715,5.087,13.637,6.936,19.338,5.938
	c7.279-1.262,11.711-10.764,10.457-18.018c-0.252-1.439-1.195-5.432-1.896-6.714l-38.402-70.81c0.953-1.361,0.791-1.129,1.895-2.711
	c0,0,82.873,11.996,84.262,11.754c7.289-1.224,17.436-9.017,16.219-16.277c-0.961-5.719-6.43-15.361-12.191-16.186l-69.721-10.291
	c3.85-8.379,7.891-11.879,10.244-20.815c8.68,1.622,15.105,1.466,23.607-1.478l98.545-33.97c0,0,10.746-3.925,15.604-4.772
	c13.34-3.17,27.201,2.596,34.303,14.27l319.188,394.023C3566.67,607.086,3557.6,616.127,3549.227,628.436z"/>
<path fill="#FFFFFF" d="M3703.34,669.766c0,0,48.204,61.771,121.537,49.104c41.895-7.236,82.157-9.687,108.979-10.456
	c20.128-0.578,31.398,20.673,32.354,28.789c2,17-1.666,26.667-14.666,39.667c-7.192,7.192-79.331,12.618-79.331,12.618
	l-132.949-0.071l-44.054-47.214"/>
</svg>
