<?xml version="1.0" encoding="utf-8"?>
<!-- Generator: Adobe Illustrator 16.0.0, SVG Export Plug-In . SVG Version: 6.00 Build 0)  -->
<!DOCTYPE svg PUBLIC "-//W3C//DTD SVG 1.1//EN" "http://www.w3.org/Graphics/SVG/1.1/DTD/svg11.dtd">
<svg version="1.1" id="Capa_1" xmlns="http://www.w3.org/2000/svg" xmlns:xlink="http://www.w3.org/1999/xlink" x="0px" y="0px"
	 width="2674.5px" height="1141.479px" viewBox="0 0 2674.5 1141.479" enable-background="new 0 0 2674.5 1141.479"
	 xml:space="preserve">
<g>
	<path d="M2659.816,236.438l-37.844-37.842c4.668-2.227,8.924-5.233,12.58-8.892c17.73-17.739,17.725-46.492-0.016-64.223
		l-88.857-88.857c-3.658-3.657-7.912-6.666-12.582-8.891c-22.641-10.79-49.74-1.185-60.533,21.454l-37.842-37.843
		c-9.729-10.656-25.02-14.209-38.449-8.933c-9.873,4.636-16.055,14.682-15.744,25.583l-16.953,139.415
		c-0.795,7.251-4.512,13.866-10.295,18.315c-6.164,4.573-13.928,6.433-21.494,5.146l-118.525-18.468
		c-34.445-12.095-72.393,4.403-87.041,37.844l-360.42,654.695l-0.907,1.816c-4.213,11.209-1.425,23.847,7.114,32.243
		c5.589,5.705,13.207,8.969,21.193,9.081c3.773,0.039,7.522-0.627,11.05-1.967l1.816-0.907l654.692-360.422
		c33.133-14.626,49.568-52.168,37.842-86.436l-18.467-118.524c-1.279-7.52,0.58-15.234,5.146-21.344
		c4.449-5.781,11.063-9.5,18.316-10.294l139.414-16.954c11.096,0.268,21.26-6.189,25.734-16.348
		C2674.025,261.458,2670.471,246.165,2659.816,236.438z"/>
	<path fill="#FFFFFF" d="M1793.199,877.809l66.504-120.938c13.998,1.027,27.181,7.242,36.884,17.551
		c10.309,9.702,16.524,22.887,17.553,36.884L1793.199,877.809z"/>
	<path fill="#FFFFFF" d="M2448.801,517.39l-1.816,0.908L1942.33,795.804c-3.784-16.197-12.179-31.134-24.396-42.877
		c-11.739-12.12-26.615-20.452-42.737-24.23l277.517-504.671l0.908-1.817c5.625-14.454,19.938-23.629,35.422-22.706
		c5.578-0.007,11.131,0.759,16.498,2.271h1.818l119.434,18.619c10.049,1.621,20.24,0.533,29.59-2.989
		c4.373,9.534,9.561,18.653,15.49,27.269l-75.658,25.22c-6.256,2.054-10.461,7.916-10.412,14.5
		c0.066,8.361,6.896,15.083,15.256,15.017c1.596-0.003,3.18-0.258,4.693-0.757l86.875-28.958c1.541,1.554,3.104,3.09,4.707,4.591
		c1.291,1.379,2.607,2.734,3.938,4.07l-28.916,86.752c-0.531,1.573-0.801,3.224-0.799,4.883c0.023,8.361,6.82,15.119,15.178,15.098
		c6.547-0.006,12.35-4.22,14.381-10.445l25.127-75.377c8.49,5.903,17.477,11.088,26.871,15.473
		c-3.51,9.365-4.584,19.57-2.949,29.631l18.922,119.283c-0.037,0.605-0.037,1.212,0,1.817
		C2475.898,489.688,2467.875,509.973,2448.801,517.39z"/>
	<path fill="#FFFFFF" d="M2499.965,277.914c-10.59,1.219-20.52,5.378-28.734,11.876c-14.58-6.212-28.094-14.629-40.063-24.951
		c-1.271-1.793-2.926-3.324-4.916-4.44c-2.551-2.401-5.035-4.881-7.424-7.461c-3.051-2.829-5.971-5.781-8.771-8.836
		c-0.902-1.431-2.018-2.679-3.301-3.71c-10.566-12.305-19.143-26.226-25.379-41.257c6.414-8.175,10.521-18.033,11.717-28.544
		l17.107-140.474c1.396,0.56,2.639,1.44,3.631,2.574l44.82,45.078l-43.457,93.123c-0.928,2.005-1.406,4.188-1.4,6.395
		c0.021,8.361,6.816,15.122,15.174,15.101c5.822-0.017,11.121-3.373,13.623-8.629l46.297-99.209
		c0.771-0.938,1.451-1.971,1.994-3.115l8.932-19.224c0.738-1.563,1.742-2.988,2.965-4.211c5.902-5.92,15.486-5.931,21.406-0.027
		l89.006,88.853c1.221,1.224,2.225,2.647,2.965,4.211c3.578,7.555,0.354,16.58-7.203,20.16l-19.223,8.932
		c-0.938,0.443-1.816,0.991-2.639,1.614l-99.691,46.522c-5.426,2.472-8.895,7.896-8.861,13.857
		c0.047,8.36,6.859,15.102,15.219,15.055c2.24-0.175,4.41-0.847,6.357-1.966l93.068-43.02l45.441,45.439
		c0.957,0.9,1.729,1.98,2.27,3.18L2499.965,277.914z"/>
	<path d="M2296.365,394.474c-51.617-13.019-80.074-95.365-80.074-96.123c-2.635-7.941-11.209-12.246-19.15-9.612
		c-7.941,2.632-12.246,11.205-9.613,19.148c1.363,3.937,33.756,98.848,101.572,115.802c1.207,0.146,2.428,0.146,3.633,0
		c5.66-0.636,10.484-4.393,12.484-9.726C2308.158,406.137,2304.193,397.41,2296.365,394.474z"/>
	<path d="M2250.953,439.885c-51.619-13.019-80.076-95.364-80.076-96.122c-2.633-7.943-11.205-12.246-19.148-9.613
		c-7.943,2.636-12.246,11.208-9.613,19.149c1.363,3.937,33.756,98.848,101.572,115.801c1.207,0.146,2.426,0.146,3.633,0
		c5.66-0.635,10.484-4.393,12.484-9.726C2262.744,451.55,2258.783,442.822,2250.953,439.885z"/>
	<g>
		<path d="M179.407,1104.7c-43.821-1.564-78.387-8.999-103.684-22.303c-25.31-13.303-43.699-29.344-55.168-48.125
			c-11.481-18.78-17.216-38.991-17.216-60.646c0-21.642,3.644-41.865,10.955-60.646c2.079-6.261,5.209-12.777,9.391-19.563
			c10.43-19.819,23.867-34.553,40.3-44.213c16.433-9.646,32.206-16.555,47.342-20.736c14.6-3.645,25.824-5.734,33.649-6.26
			c5.208-0.515,9.904-0.783,14.085-0.783c-14.611-6.26-25.823-16.689-33.648-31.301c-7.312-13.034-11.224-28.171-11.738-45.387
			c-0.526-17.216,2.347-34.944,8.607-53.211c5.209-14.086,11.078-26.081,17.607-35.996c6.517-9.904,12.643-17.729,18.389-23.477
			c0.514-0.514,3.913-4.034,10.173-10.564c6.26-6.516,15.259-13.168,26.997-19.954c11.738-6.773,26.337-12.52,43.821-17.215
			c17.472-4.695,37.684-5.735,60.646-3.131c4.169,0.526,8.338,1.052,12.521,1.565c4.169,0.526,8.339,1.308,12.52,2.348
			c4.695,1.564,11.078,4.047,19.172,7.434c8.082,3.399,16.298,8.608,24.649,15.65c8.339,7.043,15.907,15.785,22.693,26.215
			c6.774,10.441,11.212,23.476,13.303,39.126c1.565,16.702,0.783,31.827-2.348,45.387c-3.13,13.572-5.221,21.653-6.26,24.258v0.783
			c-4.182,12.007-9.66,22.962-16.433,32.865c-6.786,9.917-14.868,18.268-24.258,25.042c-13.572,9.915-25.958,15.137-37.17,15.649
			c-11.224,0.526-20.48-0.782-27.779-3.912c-9.391-3.644-17.216-9.121-23.476-16.434c5.734-5.208,13.694-14.733,23.867-28.562
			c10.172-13.816,19.686-31.423,28.562-52.82c5.734-13.56,9.122-25.163,10.173-34.822c1.039-9.647,0.648-17.729-1.174-24.259
			c-1.834-6.517-4.695-11.738-8.608-15.649c-3.913-3.913-7.96-6.909-12.129-9c-8.876-3.13-17.215-4.695-25.041-4.695h-6.26
			c-10.955,1.052-20.614,4.048-28.953,8.999c-8.351,4.965-14.354,9-17.999,12.13c-4.181,4.182-7.825,8.094-10.955,11.737
			c-3.13,3.656-6.003,7.043-8.608,10.173c-2.616,3.655-4.964,7.313-7.042,10.955c-14.085,26.606-19.955,48.395-17.607,65.342
			c2.348,16.958,7.948,30.396,16.825,40.299c9.904,11.481,23.989,20.346,42.256,26.606c0,8.877-0.917,17.216-2.739,25.041
			c-1.834,7.824-4.047,14.611-6.651,20.346c-2.616,6.786-5.747,12.789-9.39,17.998c-12.007-2.079-24.65-2.738-37.953-1.957
			c-13.303,0.783-26.215,3.265-38.735,7.435c-12.521,4.182-24.001,9.916-34.431,17.216c-10.442,7.312-18.524,16.176-24.258,26.606
			c-5.747,9.39-8.877,20.088-9.39,32.083c-1.052,13.571,1.688,24.784,8.217,33.648c6.517,8.877,14.477,16.311,23.866,22.302
			c9.391,6.003,18.512,10.441,27.389,13.304c8.865,2.872,15.125,4.572,18.781,5.086c0.513,0.525,1.039,0.782,1.565,0.782h0.782
			c13.034,3.13,25.824,4.573,38.344,4.305c12.521-0.258,23.207-0.905,32.084-1.957c25.041-5.209,44.078-15.382,57.125-30.519
			c13.034-15.124,19.563-31.301,19.563-48.517c0-9.391-1.309-16.689-3.913-21.91c-2.616-5.209-5.477-9.122-8.608-11.739
			c-3.656-2.604-7.825-4.426-12.52-5.477c1.04-4.169,3.13-7.043,6.26-8.607c3.13-1.565,6.26-2.861,9.391-3.913
			c3.643-1.04,7.825-1.296,12.52-0.783c14.085,1.052,24.771,5.747,32.083,14.086c7.299,8.352,12.251,16.176,14.868,23.476
			c1.039,3.131,2.213,7.703,3.521,13.694c1.296,6.004,1.687,13.181,1.173,21.52c-0.525,8.351-2.226,17.485-5.086,27.389
			c-2.874,9.915-7.703,20.614-14.477,32.083c-8.877,14.085-19.698,25.555-32.475,34.432c-12.789,8.864-25.958,15.772-39.517,20.736
			c-13.572,4.952-26.483,8.339-38.735,10.173c-12.263,1.822-22.045,2.996-29.344,3.521h-3.13c-4.182,0-7.96-0.135-11.347-0.392
			C185.79,1104.822,182.538,1104.7,179.407,1104.7z M220.881,1089.05c-31.827,0.513-55.168-1.174-70.036-5.087
			c-14.868-3.912-23.867-6.651-26.997-8.216c10.429,6.26,21.384,10.563,32.866,12.911c11.469,2.348,21.911,3.521,31.301,3.521
			C198.971,1092.18,209.926,1091.128,220.881,1089.05z M301.481,801.863c6.26,4.181,12.386,5.354,18.389,3.521
			c5.992-1.821,11.347-4.561,16.042-8.217c5.734-4.169,11.212-9.39,16.433-15.649c-7.312,5.746-13.963,10.05-19.954,12.912
			c-6.004,2.872-11.347,4.829-16.042,5.868C310.603,801.863,305.651,802.389,301.481,801.863z M342.173,1006.884
			c5.734-10.429,8.73-19.819,8.999-28.17c0.257-8.339-0.66-15.382-2.739-21.129c-2.617-6.773-6.529-13.033-11.738-18.78
			c4.169,7.825,6.908,15.785,8.216,23.867c1.296,8.094,1.687,15.527,1.173,22.302C345.56,992.799,344.251,1000.11,342.173,1006.884z
			"/>
		<path d="M710.734,875.42c7.824,3.656,10.954,10.307,9.39,19.954c-1.565,9.66-5.478,20.48-11.737,32.476
			c-3.13,5.746-8.743,15.92-16.825,30.519c-8.095,14.611-17.997,29.223-29.735,43.821c-11.737,14.611-25.311,27.132-40.691,37.562
			c-15.394,10.441-31.961,14.342-49.691,11.737c-6.26-1.039-12.263-3.644-17.998-7.825c-4.693-3.644-9.132-8.607-13.302-14.868
			c-4.183-6.26-6.786-15.124-7.826-26.605c-8.877,13.046-18.523,24.136-28.954,33.257c-10.441,9.134-22.436,14.477-35.995,16.042
			h-7.043c-20.346-1.039-34.957-5.478-43.821-13.303c-8.865-7.826-14.599-16.434-17.216-25.823
			c-2.604-9.39-3.387-16.69-2.348-21.911c0-6.26,0.391-12.643,1.174-19.171c0.782-6.518,1.699-11.604,2.738-15.26
			c4.182-21.386,9.134-42.257,14.868-62.603c5.734-20.345,11.738-40.165,17.998-59.472l12.521-35.996l0.782-0.783
			c1.565-0.513,4.817-1.431,9.782-2.737c4.952-1.297,10.956-2.079,17.999-2.349c7.042-0.256,14.868,0.135,23.476,1.174
			c8.607,1.052,17.606,3.912,26.997,8.608c-1.052,3.13-2.348,6.785-3.913,10.955c-1.052,3.656-2.482,7.702-4.304,12.129
			c-1.834,4.438-3.791,9.524-5.869,15.259l-10.173,26.605c-4.182,11.481-8.095,22.828-11.738,34.041
			c-3.656,11.225-7.312,22.828-10.956,34.822c-4.695,15.137-7.177,26.739-7.434,34.822c-0.269,8.095,0.648,14.22,2.739,18.39
			c2.078,4.694,5.209,7.312,9.39,7.824c6.774,0.526,14.085-3.912,21.911-13.303c7.825-9.39,15.125-20.736,21.911-34.039
			c6.772-13.304,13.035-26.863,18.781-40.692c5.734-13.815,10.172-24.905,13.303-33.257c0.513-2.078,1.039-4.034,1.565-5.869
			c0.513-1.821,1.295-4.035,2.346-6.65c3.132-9.392,6.775-19.564,10.956-30.519c4.17-10.956,8.865-22.425,14.086-34.432
			c7.826-2.604,16.165-4.426,25.041-5.478c7.3-1.04,15.772-0.905,25.433,0.391c9.646,1.309,19.684,4.304,30.127,9
			c-13.047,29.223-24.258,55.828-33.649,79.817c-4.181,10.441-7.96,20.614-11.347,30.519c-3.399,9.916-6.138,18.915-8.215,26.996
			c-2.093,8.095-3.401,15.003-3.914,20.737c-0.524,5.747,0.513,9.391,3.13,10.955c1.039,1.565,2.348,2.348,3.914,2.348
			c1.039,0,2.604-0.513,4.693-1.564c2.079-1.04,4.696-3.387,7.826-7.043c3.13-3.644,6.773-8.607,10.956-14.867
			c4.169-6.262,8.607-13.034,13.302-20.346c4.695-7.3,9.256-14.6,13.694-21.911c4.427-7.3,8.729-13.816,12.913-19.563
			c2.077-4.169,4.693-7.3,7.823-9.39c2.605-2.079,5.735-3.645,9.391-4.696C702.64,872.816,706.552,873.342,710.734,875.42z
			 M447.805,1038.186c10.43,1.565,20.077,0.782,28.953-2.348c8.865-3.13,13.817-4.952,14.868-5.479
			c-1.051,0-4.046,0.526-8.999,1.565c-4.964,1.052-10.955,1.565-17.998,1.565c-7.043,0-14.746-1.174-23.085-3.521
			c-8.351-2.347-16.433-6.651-24.258-12.912c2.079,3.656,4.426,6.786,7.043,9.392c2.604,2.615,5.734,4.963,9.39,7.042
			C437.363,1035.581,442.058,1037.146,447.805,1038.186z M441.544,844.119c1.039-2.079,2.739-5.087,5.086-8.999
			s5.343-8.082,8.999-12.521c3.644-4.426,7.825-8.339,12.521-11.737c4.695-3.388,9.647-5.601,14.868-6.652
			c-3.656,0.526-7.042,0.783-10.173,0.783c-2.616,0.525-5.355,0.782-8.216,0.782c-2.874,0-4.831,0.269-5.87,0.782L441.544,844.119z
			 M554.229,1016.275c0,5.22,1.295,9.658,3.912,13.303c2.604,3.13,6.26,5.746,10.956,7.824c4.693,2.092,11.993,2.617,21.909,1.565
			c-4.181,0.526-8.608-0.257-13.302-2.348c-4.183-1.039-8.353-3.253-12.521-6.651
			C561.002,1026.582,557.359,1022.021,554.229,1016.275z"/>
		<path d="M856.274,960.715c-3.655,15.138-6.394,29.736-8.216,43.822c-1.834,14.085-2.226,27.657-1.175,40.691
			c1.566,22.95,8.339,43.038,20.346,60.254c-2.09,0.514-4.181,1.039-6.26,1.564c-2.09,0.515-4.438,0.783-7.042,0.783
			c-2.616,0-5.478,0-8.607,0c-7.313,0-15.395-0.783-24.26-2.348c-8.877-1.565-17.349-4.964-25.431-10.173
			c-8.095-5.221-15.261-12.52-21.521-21.911c-6.26-9.39-10.172-21.653-11.737-36.778c-2.091-26.08,0.391-53.334,7.435-81.774
			c7.042-28.427,16.163-56.598,27.388-84.512c11.211-27.901,23.206-54.643,35.997-80.209c12.775-25.554,23.598-48.517,32.475-68.862
			c2.079-5.734,4.815-12.129,8.217-19.172c3.386-7.043,6.382-13.951,8.999-20.737c2.604-6.772,4.815-13.034,6.65-18.779
			c1.821-5.735,2.739-10.174,2.739-13.304c-0.526-2.604-2.875-3.912-7.044-3.912c-5.745,0-13.044,1.441-21.91,4.304
			c-8.876,2.873-16.176,5.354-21.911,7.434c-19.83,7.313-37.562,15.92-53.211,25.824c-15.649,9.915-29.089,19.953-40.3,30.126
			c-11.226,10.173-20.346,19.833-27.388,28.953c-7.044,9.135-11.873,16.311-14.477,21.52c-6.262-2.604-11.738-6.516-16.434-11.737
			c-4.182-4.17-7.948-9.513-11.348-16.042c-3.387-6.518-5.6-14.477-6.65-23.866c-1.566-20.346,3.79-38.577,16.041-54.704
			c12.252-16.114,27.78-29.724,46.56-40.802c18.782-11.077,39.127-19.574,61.037-25.505c21.911-5.918,41.73-8.889,59.473-8.889
			c9.903,0,20.346,1.418,31.302,4.243c10.955,2.836,21.127,7.458,30.518,13.876c9.392,6.432,17.337,14.93,23.868,25.494
			c6.516,10.576,10.563,23.952,12.129,40.117c1.039,13.571,0.122,26.483-2.739,38.734c-2.874,12.264-6.396,24.136-10.564,35.604
			c13.034-15.65,26.472-29.858,40.3-42.646c13.816-12.777,27.646-23.868,41.474-33.258c13.816-9.391,27.254-16.69,40.3-21.911
			c13.035-5.208,25.299-7.825,36.779-7.825c11.469,0,21.25,2.225,29.345,6.652c8.081,4.438,14.734,10.173,19.954,17.215
			c5.209,7.042,8.865,14.868,10.956,23.476c2.079,8.608,3.13,17.351,3.13,26.215c0,10.441-2.617,24.001-7.826,40.691
			c-5.22,16.701-11.615,35.213-19.17,55.559c-7.57,20.346-15.395,41.743-23.478,64.168c-8.093,22.436-15.259,44.09-21.519,64.948
			c-1.566,4.696-4.574,14.746-8.999,30.128c-4.438,15.395-6.651,39.004-6.651,70.818c0,14.611,1.431,26.863,4.304,36.779
			c2.86,9.903,6.382,17.729,10.564,23.476c4.169,5.734,8.607,9.904,13.302,12.52c4.695,2.604,8.865,3.913,12.521,3.913
			c3.644,0,5.991-0.269,7.042-0.782c1.039-0.526,1.821-1.052,2.348-1.565c0,7.826-2.09,13.816-6.26,17.998
			c-4.183,4.17-8.999,7.435-14.477,9.782c-5.478,2.347-11.091,3.777-16.824,4.304c-5.747,0.514-10.174,0.782-13.305,0.782
			c-8.876,0-17.739-1.309-26.605-3.913c-8.876-2.616-16.702-7.568-23.475-14.867c-6.787-7.313-12.265-17.607-16.434-30.91
			c-4.182-13.303-6.261-30.91-6.261-52.82c4.17-45.387,12.522-91.812,25.042-139.289c12.52-47.466,27.118-92.852,43.821-136.16
			c2.079-5.734,3.778-10.563,5.087-14.477c1.295-3.913,1.955-7.69,1.955-11.347c0-9.39-5.221-14.085-15.65-14.085
			c-10.955,0-25.823,5.611-44.603,16.824c-18.782,11.225-38.346,27.267-58.691,48.125c-20.346,20.872-39.785,45.778-58.298,74.731
			C880.398,892.244,866.179,924.719,856.274,960.715z M691.945,726.74c-1.053-14.085,0-26.997,3.13-38.734
			c3.13-11.738,5.209-18.646,6.26-20.737c-6.26,6.785-10.308,13.828-12.129,21.128c-1.835,7.312-2.483,13.829-1.957,19.563
			c0,2.617,0.258,5.086,0.782,7.434c0.515,2.349,1.039,4.305,1.566,5.869C690.11,723.354,690.893,725.176,691.945,726.74z
			 M786.629,1042.881c0,0.525,0.258,2.738,0.784,6.651c0.514,3.912,1.821,8.216,3.912,12.912c2.079,4.694,5.343,9.39,9.781,14.084
			c4.427,4.696,10.822,8.083,19.172,10.173c-4.181-3.13-8.35-6.785-12.52-10.954c-3.656-3.656-7.435-8.217-11.347-13.695
			C792.498,1056.575,789.234,1050.192,786.629,1042.881z M1026.083,1089.05c0,0.513,0.122,2.604,0.391,6.26
			c0.258,3.644,1.688,7.691,4.305,12.13c2.604,4.426,6.651,8.607,12.129,12.52c5.478,3.913,13.426,6.651,23.866,8.217
			c-0.524-0.525-2.481-1.565-5.868-3.13c-3.399-1.565-7.312-3.913-11.738-7.043c-4.438-3.13-8.741-7.043-12.911-11.737
			C1032.073,1101.57,1028.688,1095.823,1026.083,1089.05z M1100.423,653.966c4.17,0,7.69,0.392,10.563,1.173
			c2.86,0.783,4.817,1.443,5.868,1.957c-7.311-5.209-14.61-7.825-21.909-7.825c-6.26,0-12.129,1.308-17.606,3.912
			c-5.479,2.617-10.308,5.222-14.477,7.825c-5.221,3.131-9.659,6.786-13.304,10.956c10.429-7.3,19.954-12.129,28.563-14.477
			C1086.729,655.139,1094.163,653.966,1100.423,653.966z"/>
		<path d="M1157.54,1051.488c-10.442-2.079-19.037-7.043-25.823-14.868c-5.735-6.773-10.174-16.556-13.304-29.345
			c-3.13-12.776-1.821-30.641,3.914-53.604c1.563-10.954,4.694-23.988,9.39-39.126c3.656-13.034,8.877-29.075,15.649-48.125
			c6.775-19.037,15.652-41.865,26.607-68.471c7.824-2.604,16.163-4.426,25.04-5.478c7.299-1.04,15.773-0.905,25.433,0.391
			c9.647,1.309,19.686,4.304,30.126,9c-13.046,29.223-24.258,55.828-33.647,79.817c-4.183,10.441-7.959,20.614-11.347,30.519
			c-3.398,9.916-6.138,18.915-8.217,26.996c-2.09,8.095-3.398,15.003-3.912,20.737c-0.526,5.747,0.256,9.391,2.349,10.955
			c0.513,1.565,1.821,2.348,3.911,2.348c1.564,0,3.388-0.513,5.479-1.564c2.079-1.04,4.693-3.387,7.824-7.043
			c3.131-3.644,6.774-8.607,10.955-14.867c4.17-6.262,8.608-13.034,13.304-20.346c4.694-7.3,9.257-14.6,13.695-21.911
			c4.425-7.3,8.729-13.816,12.91-19.563c2.079-4.169,4.696-7.3,7.826-9.39c2.604-2.079,5.733-3.645,9.39-4.696
			c3.643-1.038,7.557-0.513,11.738,1.565c7.825,3.656,10.955,10.307,9.39,19.954c-1.564,9.66-5.747,20.48-12.521,32.476
			c-3.13,5.746-8.743,15.92-16.824,30.519c-8.095,14.611-17.998,29.223-29.735,43.821c-11.737,14.611-25.175,27.132-40.3,37.562
			C1191.703,1050.192,1175.27,1054.093,1157.54,1051.488z M1141.891,1016.275c0,5.22,1.295,9.658,3.912,13.303
			c2.604,3.13,6.26,5.746,10.956,7.824c4.693,2.092,11.993,2.617,21.909,1.565c-4.181,0.526-8.607-0.257-13.302-2.348
			c-4.183-1.039-8.353-3.253-12.521-6.651C1148.664,1026.582,1145.021,1022.021,1141.891,1016.275z M1167.712,844.119
			c1.04-2.079,2.739-5.087,5.087-8.999c2.349-3.912,5.345-8.082,8.999-12.521c3.646-4.426,7.826-8.339,12.521-11.737
			c4.694-3.388,9.646-5.601,14.868-6.652c-3.656,0.526-7.044,0.783-10.174,0.783c-2.617,0.525-5.355,0.782-8.217,0.782
			c-2.873,0-4.829,0.269-5.869,0.782L1167.712,844.119z M1219.359,703.265c6.26-1.039,14.734-1.956,25.433-2.738
			c10.687-0.783,22.033,0.916,34.04,5.086c2.079,1.052,3.912,2.348,5.478,3.913c3.13,3.13,3.644,7.568,1.564,13.303l-11.738,26.605
			c-0.524,1.565-1.308,3.399-2.348,5.478c-1.563,3.13-3.398,5.747-5.478,7.826c-3.13,3.655-7.824,7.312-14.084,10.954
			c-6.262,3.656-14.612,4.695-25.041,3.13c-9.391-1.038-16.435-3.521-21.128-7.434c-4.696-3.912-7.826-7.947-9.392-12.129
			c-1.564-3.13-1.833-6.518-0.782-10.173l1.565-6.26c1.564-4.695,3.252-9.391,5.085-14.086c1.823-4.694,4.036-9.903,6.653-15.65
			c0.513-1.039,1.295-2.079,2.348-3.13C1214.139,705.355,1216.742,703.791,1219.359,703.265z M1203.709,745.521
			c0-0.515,1.174-2.349,3.521-5.479s5.209-6.773,8.607-10.955c3.388-4.169,7.558-8.082,12.521-11.738
			c4.953-3.643,10.296-6.26,16.042-7.824c-2.616,0.525-4.965,0.781-7.044,0.781c-2.09,0.526-4.303,0.783-6.65,0.783
			s-4.572,0.269-6.651,0.783c-3.13,1.051-5.22,2.347-6.26,3.912c-1.053,1.052-1.565,1.834-1.565,2.348L1203.709,745.521z"/>
		<path d="M1515.93,875.42c7.826,3.656,11.078,10.307,9.781,19.954c-1.309,9.66-5.356,20.48-12.129,32.476
			c-2.617,3.655-5.869,9.268-9.781,16.824c-3.914,7.567-8.743,16.311-14.477,26.214c-4.183,5.747-9.66,12.912-16.434,21.52
			c-6.786,8.608-14.868,17.094-24.258,25.433c-9.392,8.351-20.09,16.176-32.083,23.476c-12.009,7.312-25.311,12.521-39.909,15.65
			l-17.216,2.348c-6.786,0.514-14.086,0.514-21.911,0c-9.391-0.525-18.524-1.834-27.388-3.912
			c-7.826-2.092-15.921-4.952-24.26-8.608c-8.351-3.644-15.649-9.121-21.909-16.434c-0.514,0-0.782-0.256-0.782-0.781
			c-8.339-9.904-13.304-21.386-14.87-34.432c-1.563-13.034-1.563-25.555,0-37.562c1.566-13.56,4.696-27.645,9.393-42.256
			c7.823-23.99,17.08-43.687,27.778-59.081c10.687-15.382,22.169-27.645,34.431-36.778c12.253-9.122,24.906-15.382,37.953-18.78
			c13.034-3.388,25.554-5.087,37.561-5.087c7.3,0,14.086,0.783,20.346,2.348c4.696,1.052,10.956,4.182,18.781,9.39
			c7.824,5.222,13.817,13.829,17.998,25.823c0,0.527,0.513,2.349,1.566,5.479v0.783c1.037,3.655,1.686,7.176,1.955,10.563
			c0.257,3.398,0.648,6.395,1.175,8.999c0,1.052-0.136,2.738-0.394,5.087c-0.269,2.347-1.173,4.829-2.736,7.434
			c-5.747,6.785-11.616,11.347-17.609,13.693c-6.002,2.349-11.089,4.048-15.259,5.087c-0.524,0-0.917,0.135-1.173,0.392
			c-0.269,0.269-0.66,0.391-1.175,0.391c-2.615,0-4.181-0.513-4.694-1.564c-0.525-1.04-0.783-2.078-0.783-3.13
			c2.079-8.34,2.996-16.434,2.738-24.259c-0.269-7.825-2.738-13.034-7.433-15.651c-5.22-2.604-11.347-2.604-18.389,0
			c-7.044,2.617-14.086,7.436-21.13,14.478c-7.041,7.043-14.085,16.312-21.127,27.78c-7.042,11.48-13.182,24.526-18.389,39.126
			c-1.566,4.695-3.13,9.659-4.696,14.868c-1.051,4.182-1.957,8.876-2.738,14.085c-0.782,5.221-0.918,10.173-0.392,14.868
			c0,2.617,1.564,7.043,4.696,13.303c2.077,4.182,4.951,7.312,8.605,9.391c1.04,1.051,2.079,1.834,3.132,2.347
			c1.038,0.526,2.077,1.053,3.13,1.565l3.912,1.564c8.339,2.617,16.434,3.4,24.258,2.349c7.826-1.04,15.383-3.13,22.693-6.26
			l15.651-7.043c7.3-4.695,13.951-10.43,19.953-17.216c5.993-6.774,11.347-13.034,16.043-18.78l8.607-11.738
			c5.735-8.864,11.738-18.12,17.998-27.779c6.26-9.647,11.737-18.121,16.434-25.433c2.079-4.169,4.695-7.3,7.825-9.39
			c2.604-2.079,5.733-3.645,9.39-4.696C1507.835,872.816,1511.747,873.342,1515.93,875.42z M1292.128,1029.578
			c6.773,5.746,14.868,10.173,24.258,13.303c7.825,2.616,17.473,4.182,28.953,4.694c11.469,0.526,24.772-2.078,39.909-7.824
			c-10.442,2.09-20.872,3.13-31.301,3.13c-8.877,0-18.916-0.782-30.127-2.349
			C1312.596,1038.968,1302.031,1035.324,1292.128,1029.578z M1349.251,817.513c-10.44,2.617-19.171,6.652-26.215,12.13
			c-7.042,5.478-12.655,11.089-16.824,16.823c-5.221,6.262-9.39,13.304-12.52,21.129c4.169-5.734,9.39-11.604,15.651-17.606
			c6.26-5.991,12.251-11.347,17.998-16.042C1334.114,828.212,1341.427,822.734,1349.251,817.513z"/>
		<path d="M1791.371,875.42c7.299,3.656,10.295,10.307,8.998,19.954c-1.307,9.66-5.354,20.48-12.129,32.476
			c-3.129,5.746-8.741,15.92-16.824,30.519c-8.093,14.611-17.998,29.223-29.735,43.821c-11.737,14.611-25.175,27.132-40.3,37.562
			c-15.137,10.441-31.57,14.342-49.3,11.737c-5.22-1.039-10.44-3.13-15.649-6.26c-4.183-2.604-8.485-6.652-12.913-12.13
			c-4.438-5.477-7.701-12.643-9.78-21.52c-7.311,12.008-17.484,22.303-30.52,30.91c-13.044,8.608-29.478,12.129-49.299,10.564
			c-13.047-1.053-23.744-3.779-32.084-8.217c-8.35-4.427-14.989-9.904-19.954-16.434c-4.951-6.516-8.473-13.951-10.563-22.301
			c-2.078-8.339-3.387-16.69-3.913-25.042c-1.038-19.819,2.348-41.729,10.174-65.731c7.825-23.99,17.08-43.687,27.78-59.081
			c10.685-15.382,22.167-27.645,34.43-36.778c12.252-9.122,24.907-15.382,37.954-18.78c13.032-3.388,25.552-5.087,37.561-5.087
			c13.56,0,23.867,1.699,30.909,5.087c7.043,3.398,12.386,7.177,16.042,11.347l6.26-14.086c7.3-2.604,15.381-4.426,24.258-5.478
			c7.3-1.04,15.773-0.905,25.433,0.391c9.647,1.309,19.686,4.304,30.127,9c-13.047,29.223-24.258,55.828-33.648,79.817
			c-4.183,10.441-7.959,20.614-11.346,30.519c-3.399,9.916-6.139,18.915-8.218,26.996c-2.09,8.095-3.263,15.003-3.521,20.737
			c-0.269,5.747,0.648,9.391,2.739,10.955c0.513,1.565,1.821,2.348,3.911,2.348c1.566,0,3.388-0.513,5.479-1.564
			c2.079-1.04,4.695-3.387,7.826-7.043c3.129-3.644,6.772-8.607,10.955-14.867c4.17-6.262,8.473-13.034,12.911-20.346
			c4.427-7.3,8.999-14.6,13.694-21.911c4.694-7.3,8.863-13.816,12.52-19.563c2.079-4.169,4.696-7.3,7.826-9.39
			c2.604-2.079,5.733-3.645,9.39-4.696C1782.494,872.816,1786.677,873.342,1791.371,875.42z M1489.316,1004.537
			c0.514,5.746,2.348,10.955,5.479,15.649c2.604,4.183,6.772,7.961,12.52,11.347c5.735,3.399,13.816,5.613,24.26,6.652
			c-0.527,0-2.484-0.783-5.869-2.348c-3.399-1.565-7.178-3.777-11.347-6.651c-4.183-2.861-8.608-6.261-13.304-10.173
			C1496.358,1015.101,1492.446,1010.283,1489.316,1004.537z M1502.62,895.766c6.26-12.521,13.033-23.207,20.346-32.084
			c7.3-8.864,14.477-16.433,21.519-22.692c7.044-6.261,13.035-10.956,17.998-14.086c4.953-3.13,8.217-4.952,9.782-5.478
			c-13.046,3.656-23.868,9.525-32.476,17.606c-8.606,8.095-15.783,16.311-21.52,24.649
			C1512.01,873.599,1506.79,884.297,1502.62,895.766z M1630.954,898.896c1.563-4.696,2.86-9.782,3.911-15.26
			c1.04-5.479,1.688-10.82,1.957-16.042c0.258-5.209-0.135-9.647-1.173-13.303c-1.053-3.644-3.132-6.26-6.262-7.826
			c-5.747-2.604-12.007-2.604-18.779,0c-6.786,2.617-13.828,7.436-21.128,14.478c-7.313,7.043-14.477,16.312-21.521,27.78
			c-7.042,11.48-13.18,24.526-18.389,39.126c-3.656,10.955-6.004,20.871-7.044,29.735c-1.051,7.312-0.66,14.354,1.175,21.129
			c1.822,6.785,6.382,10.698,13.695,11.737c4.693,1.051,9.78,0.782,15.259-0.782c5.478-1.565,11.211-5.086,17.215-10.564
			c5.991-5.478,12.129-13.303,18.389-23.476c6.261-10.173,12.251-23.599,17.998-40.3v-0.783c0-1.038,0.258-1.821,0.784-2.347
			L1630.954,898.896z M1635.649,1016.275c0,5.22,1.295,9.658,3.912,13.303c2.604,3.13,6.382,5.746,11.347,7.824
			c4.951,2.092,12.129,2.617,21.519,1.565c-4.181,0.526-8.607-0.257-13.302-2.348c-4.183-1.039-8.352-3.253-12.521-6.651
			C1642.423,1026.582,1638.779,1022.021,1635.649,1016.275z"/>
	</g>
</g>
</svg>
