<?xml version="1.0" encoding="utf-8"?>
<!-- Generator: Adobe Illustrator 16.0.0, SVG Export Plug-In . SVG Version: 6.00 Build 0)  -->
<!DOCTYPE svg PUBLIC "-//W3C//DTD SVG 1.1//EN" "http://www.w3.org/Graphics/SVG/1.1/DTD/svg11.dtd">
<svg version="1.1" id="Capa_1" xmlns="http://www.w3.org/2000/svg" xmlns:xlink="http://www.w3.org/1999/xlink" x="0px" y="0px"
	 width="2704.086px" height="935.407px" viewBox="0 0 2704.086 935.407" enable-background="new 0 0 2704.086 935.407"
	 xml:space="preserve">
<rect display="none" width="2704.09" height="1141.484"/>
<g>
	<g>
		<path fill="none" d="M2442.044,355.131c0.109-8.976,2.448-16.794,6.932-24.378c-7.511-5.241-9.626-8.46-16.118-14.879
			l-33.37,61.523c-2.716,5.088-13.637,6.936-19.338,5.938c-7.28-1.262-11.711-10.764-10.457-18.018
			c0.252-1.439,1.194-5.432,1.896-6.714l38.403-70.809c-0.954-1.362-0.792-1.128-1.896-2.712c0,0-82.872,11.996-84.261,11.754
			c-7.289-1.223-17.436-9.016-16.219-16.277c0.961-5.717,6.432-15.361,12.191-16.185l69.722-10.292
			c-3.85-8.379-7.891-11.878-10.245-20.815c-8.68,1.622-15.104,1.466-23.607-1.478l-98.545-33.969c0,0-10.744-3.925-15.603-4.773
			c-13.34-3.17-27.202,2.596-34.303,14.27L1888.04,601.342c13.462,5.744,22.533,14.786,30.906,27.095
			c8.848,12.054,10.854,23.079,11.68,37.705l484.311-163.775c18.672-6.909,27.36-17.274,25.122-39.318
			C2440.118,462.518,2442.044,355.131,2442.044,355.131z M2281.688,465.034c-3.472,5.889-9.955,9.328-16.776,8.902
			c-1.457-0.078-2.898-0.331-4.296-0.756c-76.639-34.129-95.208-153.051-96-157.987c-1.464-9.934,5.404-19.172,15.341-20.638
			c9.936-1.461,19.176,5.406,20.637,15.343c-0.158,0.896,16.37,104.145,74.682,130.26
			C2283.92,445.256,2286.788,456.396,2281.688,465.034z M2344.804,420.792c-3.473,5.889-9.956,9.326-16.777,8.903
			c-1.455-0.078-2.898-0.332-4.296-0.755c-76.638-34.133-95.208-153.054-96-157.99c-1.463-9.937,5.407-19.176,15.341-20.637
			c9.935-1.464,19.175,5.407,20.641,15.341c-0.158,0.896,16.369,104.147,74.679,130.261
			C2347.033,401.012,2349.906,412.152,2344.804,420.792z"/>
		<path fill="none" d="M1862.19,667.351c-6.125-9.326-13.591-13.211-24.317-15.918l-66.752,79.455
			c0.125,0.124,97.743-35.247,97.743-35.247C1869.133,676.44,1862.19,667.351,1862.19,667.351z"/>
		<path fill="none" d="M2615.4,231.72l-78.106,20.693c-10.186,2.617-15.108-4.334-16.129-10.843
			c-0.813-5.188,0.879-13.322,10.708-16.29l82.174-24.645c0.724-0.372,15.531-5.562,15.531-5.562
			c8.938-3.675,8.178-13.792,3.666-20.271c-0.778-1.119-45.691-65.553-45.691-65.553c-3.789-5.391-13.771-7.917-19.159-4.128
			c-1.115,0.783-12.01,16.334-12.01,16.334c-0.577,0.814-46.626,66.938-46.626,66.938c-6.686,7.709-14.597,6.33-19.116,5.549
			c-6.49-1.125-10.843-7.299-9.718-13.792c0.296-1.714,0.966-3.343,1.959-4.772l46.437-66.351l-28.639-41.104
			c-0.615-1.016-1.459-1.868-2.467-2.493l-32.443,106.698c-2.363,7.996-6.896,15.087-12.99,20.557
			c2.79,12.518,7.548,24.493,14.07,35.486c0.855,0.975,1.551,2.096,2.055,3.329c1.757,2.754,3.621,5.443,5.604,8.055
			c1.502,2.329,3.091,4.592,4.743,6.804c1.394,1.138,2.469,2.552,3.211,4.117c7.882,9.645,17.223,18.022,27.691,24.833
			c7.262-3.923,15.536-5.797,23.923-5.297l111.722,5.953c-0.257-1.005-0.709-1.949-1.328-2.778L2615.4,231.72z"/>
		<path fill="#FFFFFF" d="M2276.274,445.158c-58.312-26.115-74.84-129.365-74.682-130.26c-1.461-9.937-15.526-14.968-25.462-13.507
			c-9.937,1.466-16.553,19.415-15.089,29.349c0.792,4.937,12.628,111.751,89.267,145.88c13.5,3.269,28.907-0.698,32.379-6.586
			C2287.788,461.396,2284.92,450.256,2276.274,445.158z"/>
		<path fill="#FFFFFF" d="M2338.391,395.916c-58.31-26.114-74.837-129.365-74.679-130.261c-1.466-9.935-15.011-15.277-24.945-13.813
			c-9.934,1.461-15.913,16.462-14.45,26.399c0.792,4.936,16.463,116.792,93.101,150.925c1.397,0.423,8.379,1.83,9.834,1.908
			c6.821,0.423,14.08-4.393,17.553-10.282C2349.906,412.152,2347.033,401.012,2338.391,395.916z"/>
		<path fill="#FFFFFF" d="M2696.841,276.818l-30.722-43.822c4.983-1.385,9.696-3.609,13.93-6.58
			c20.534-14.402,25.507-42.722,11.104-63.256l-72.132-102.899c-2.969-4.235-6.639-7.935-10.853-10.935
			c-20.431-14.547-48.783-9.779-63.333,10.65l-30.719-43.823c-7.737-12.179-22.182-18.326-36.321-15.455
			c-10.526,2.856-18.355,11.68-19.936,22.471l-40.834,134.375c-2.038,7.004-6.845,12.875-13.311,16.256
			c-6.862,3.437-14.831,3.925-22.061,1.347l-113.537-38.71c-31.831-17.875-72.063-8.196-92.278,22.204l-468.325,582.409
			l-1.208,1.632c-3.115,5.273-49.155,62.188-58.13,71.961l39.634,23.766l52.391-50.73l707.205-241.631
			c35.165-8.668,57.853-42.799,52.235-78.579l2.332-119.931c0.042-7.628,3.209-14.904,8.764-20.131
			c5.383-4.923,12.541-7.441,19.821-6.967l140.244,7.439c10.882,2.185,22.011-2.415,28.176-11.646
			C2706.503,303.921,2705.65,288.243,2696.841,276.818z M1771.121,730.888l66.752-79.455c10.727,2.707,18.192,6.592,24.317,15.918
			c0,0,6.942,9.089,6.674,28.29C1868.864,695.641,1771.246,731.012,1771.121,730.888z M2414.937,502.367l-484.311,163.775
			c-0.826-14.626-2.832-25.651-11.68-37.705c-8.373-12.309-17.444-21.351-30.906-27.095l319.187-394.023
			c7.101-11.674,20.963-17.44,34.303-14.27c4.858,0.848,15.603,4.773,15.603,4.773l98.545,33.969
			c8.503,2.944,14.928,3.1,23.607,1.478c2.354,8.937,6.396,12.436,10.245,20.815l-69.722,10.292
			c-5.76,0.824-11.23,10.467-12.191,16.185c-1.217,7.261,8.93,15.054,16.219,16.277c1.389,0.242,84.261-11.754,84.261-11.754
			c1.104,1.583,0.942,1.35,1.896,2.712l-38.403,70.809c-0.702,1.283-1.645,5.275-1.896,6.714
			c-1.254,7.254,3.177,16.756,10.457,18.018c5.701,0.997,16.622-0.851,19.338-5.938l33.37-61.523
			c6.492,6.418,8.607,9.638,16.118,14.879c-4.483,7.584-6.822,15.403-6.932,24.378c0,0-1.926,107.387-1.985,107.917
			C2442.297,485.092,2433.608,495.458,2414.937,502.367z M2534.077,270.014c-8.387-0.5-16.661,1.374-23.923,5.297
			c-10.469-6.811-19.81-15.188-27.691-24.833c-0.742-1.565-1.817-2.979-3.211-4.117c-1.652-2.212-3.241-4.475-4.743-6.804
			c-1.982-2.612-3.847-5.301-5.604-8.055c-0.504-1.233-1.199-2.354-2.055-3.329c-6.522-10.993-11.28-22.968-14.07-35.486
			c6.094-5.47,10.627-12.561,12.99-20.557l32.443-106.698c1.008,0.625,1.852,1.478,2.467,2.493l28.639,41.104l-46.437,66.351
			c-0.993,1.43-1.663,3.059-1.959,4.772c-1.125,6.492,3.228,12.667,9.718,13.792c4.52,0.781,12.431,2.16,19.116-5.549
			c0,0,46.049-66.125,46.626-66.938c0,0,10.895-15.551,12.01-16.334c5.389-3.789,15.37-1.262,19.159,4.128
			c0,0,44.913,64.434,45.691,65.553c4.512,6.478,5.271,16.595-3.666,20.271c0,0-14.808,5.19-15.531,5.562l-82.174,24.645
			c-9.829,2.968-11.521,11.102-10.708,16.29c1.021,6.509,5.943,13.459,16.129,10.843l78.106-20.693l29.07,41.469
			c0.619,0.829,1.071,1.772,1.328,2.778L2534.077,270.014z"/>
	</g>
	<g>
		<path fill="none" d="M1625.779,640.444c-5.748-2.604-12.006-2.604-18.777,0c-6.785,2.615-13.827,7.434-21.124,14.475
			c-7.312,7.042-14.475,16.308-21.517,27.774c-7.044,11.479-13.181,24.523-18.387,39.12c-3.657,10.954-6.003,20.867-7.039,29.73
			c-1.055,7.31-0.662,14.354,1.17,21.125c1.824,6.783,6.382,10.696,13.693,11.734c4.693,1.054,9.779,0.784,15.256-0.78
			c5.478-1.564,11.212-5.086,17.213-10.563c5.99-5.478,12.126-13.3,18.387-23.473c6.258-10.171,12.248-23.594,17.996-40.293v-0.783
			c0-1.039,0.255-1.822,0.78-2.346l3.913-13.302c1.564-4.694,2.861-9.779,3.91-15.256c1.041-5.478,1.69-10.818,1.958-16.04
			c0.259-5.206-0.134-9.645-1.175-13.299C1630.988,644.626,1628.908,642.008,1625.779,640.444z"/>
		<path fill="#FFFFFF" d="M401.367,467.535c-2.091-15.647-6.528-28.68-13.3-39.12c-6.784-10.429-14.354-19.168-22.691-26.21
			c-8.349-7.042-16.563-12.248-24.644-15.647c-8.095-3.387-14.475-5.869-19.168-7.434c-4.18-1.039-8.351-1.822-12.521-2.348
			c-4.18-0.514-8.348-1.039-12.518-1.564c-22.957-2.604-43.164-1.564-60.635,3.131c-17.482,4.694-32.078,10.438-43.813,17.213
			c-11.735,6.783-20.735,13.434-26.993,19.951c-6.258,6.526-9.657,10.047-10.17,10.561c-5.745,5.747-11.872,13.569-18.388,23.473
			c-6.526,9.915-12.395,21.907-17.604,35.99c-6.258,18.264-9.131,35.991-8.604,53.203c0.512,17.213,4.424,32.347,11.735,45.379
			c7.823,14.608,19.032,25.037,33.641,31.295c-4.178,0-8.874,0.268-14.08,0.783c-7.825,0.523-19.05,2.616-33.646,6.258
			c-15.133,4.184-30.904,11.088-47.335,20.733c-16.431,9.657-29.864,24.39-40.293,44.208c-4.181,6.783-7.312,13.299-9.39,19.558
			C3.643,725.725,0,745.945,0,767.583c0,21.65,5.732,41.857,17.212,60.637c11.465,18.776,29.853,34.816,55.157,48.115
			c25.295,13.303,59.853,20.735,103.669,22.3c3.129,0,6.382,0.122,9.778,0.393c3.387,0.255,7.163,0.389,11.346,0.389h3.13
			c7.299-0.525,17.078-1.698,29.341-3.521c12.248-1.832,25.158-5.22,38.729-10.171c13.555-4.964,26.723-11.869,39.512-20.732
			c12.774-8.874,23.594-20.344,32.468-34.425c6.774-11.47,11.602-22.165,14.476-32.078c2.858-9.902,4.559-19.037,5.085-27.385
			c0.513-8.339,0.121-15.514-1.173-21.517c-1.31-5.99-2.484-10.563-3.523-13.691c-2.613-7.3-7.567-15.122-14.864-23.473
			c-7.312-8.338-17.995-13.029-32.078-14.083c-4.693-0.513-8.874-0.255-12.519,0.783c-3.129,1.052-6.258,2.349-9.387,3.913
			c-3.132,1.564-5.223,4.436-6.261,8.604c4.693,1.054,8.863,2.873,12.519,5.479c3.129,2.615,5.99,6.525,8.605,11.735
			c2.604,5.219,3.913,12.519,3.913,21.905c0,17.215-6.528,33.388-19.561,48.51c-13.044,15.134-32.078,25.307-57.115,30.514
			c-8.874,1.052-19.561,1.698-32.076,1.956c-12.519,0.269-25.308-1.173-38.339-4.304h-0.781c-0.528,0-1.054-0.256-1.567-0.781
			c-3.654-0.513-9.913-2.214-18.776-5.088c-8.874-2.858-17.996-7.297-27.383-13.3c-9.39-5.99-17.349-13.423-23.864-22.3
			c-6.528-8.861-9.266-20.07-8.214-33.641c0.513-11.992,3.642-22.691,9.389-32.078c5.732-10.429,13.813-19.29,24.252-26.602
			c10.428-7.3,21.908-13.032,34.429-17.215c12.517-4.168,25.427-6.647,38.729-7.431c13.3-0.781,25.939-0.124,37.944,1.956
			c3.643-5.209,6.771-11.212,9.39-17.995c2.604-5.732,4.815-12.519,6.647-20.341c1.825-7.825,2.74-16.164,2.74-25.037
			c-18.264-6.261-32.35-15.122-42.25-26.602c-8.873-9.903-14.472-23.337-16.822-40.293c-2.346-16.947,3.521-38.729,17.604-65.333
			c2.08-3.642,4.429-7.297,7.042-10.951c2.605-3.129,5.479-6.516,8.608-10.173c3.129-3.643,6.773-7.555,10.951-11.735
			c3.645-3.129,9.647-7.163,17.996-12.127c8.338-4.951,17.995-7.946,28.949-8.998h6.258c7.825,0,16.164,1.564,25.037,4.694
			c4.171,2.092,8.215,5.087,12.127,8.997c3.913,3.913,6.773,9.132,8.608,15.65c1.82,6.525,2.212,14.608,1.173,24.254
			c-1.051,9.657-4.438,21.258-10.173,34.815c-8.874,21.395-18.385,38.999-28.556,52.812c-10.173,13.828-18.129,23.351-23.864,28.558
			c6.261,7.31,14.083,12.786,23.473,16.432c7.297,3.129,16.553,4.438,27.774,3.912c11.212-0.516,23.594-5.734,37.164-15.647
			c9.39-6.773,17.47-15.124,24.256-25.04c6.771-9.902,12.246-20.854,16.429-32.859v-0.781c1.039-2.605,3.132-10.686,6.261-24.256
			C402.15,499.355,402.934,484.234,401.367,467.535z"/>
		<path fill="#FFFFFF" d="M707.276,669.393c-4.183-2.08-8.093-2.604-11.737-1.564c-3.654,1.049-6.783,2.613-9.387,4.693
			c-3.132,2.091-5.748,5.22-7.825,9.39c-4.181,5.745-8.485,12.261-12.911,19.561c-4.436,7.309-8.997,14.608-13.69,21.905
			c-4.694,7.312-9.132,14.083-13.302,20.344c-4.181,6.258-7.823,11.222-10.952,14.864c-3.132,3.654-5.745,6.002-7.822,7.041
			c-2.093,1.052-3.657,1.564-4.696,1.564c-1.564,0-2.873-0.783-3.912-2.348c-2.616-1.564-3.655-5.207-3.129-10.951
			c0.513-5.735,1.819-12.643,3.912-20.735c2.078-8.081,4.814-17.076,8.217-26.991c3.382-9.903,7.16-20.076,11.344-30.515
			c9.387-23.985,20.599-50.584,33.643-79.802c-10.441-4.696-20.478-7.691-30.122-9c-9.657-1.295-18.13-1.431-25.429-0.392
			c-8.874,1.054-17.213,2.873-25.035,5.479c-5.222,12.003-9.918,23.471-14.086,34.425c-4.18,10.951-7.822,21.124-10.951,30.512
			c-1.054,2.618-1.835,4.83-2.348,6.652c-0.525,1.834-1.054,3.788-1.564,5.868c-3.132,8.349-7.567,19.437-13.303,33.252
			c-5.744,13.825-12.002,27.382-18.776,40.685c-6.786,13.299-14.083,24.646-21.907,34.034c-7.826,9.388-15.135,13.825-21.908,13.3
			c-4.178-0.513-7.31-3.129-9.388-7.825c-2.09-4.168-3.007-10.292-2.737-18.387c0.256-8.078,2.737-19.682,7.434-34.816
			c3.64-11.99,7.297-23.594,10.951-34.815c3.643-11.21,7.555-22.556,11.735-34.035l10.173-26.599
			c2.078-5.735,4.034-10.82,5.866-15.259c1.822-4.426,3.251-8.47,4.305-12.127c1.564-4.168,2.858-7.825,3.912-10.951
			c-9.39-4.696-18.388-7.558-26.993-8.608c-8.605-1.039-16.432-1.431-23.47-1.173c-7.044,0.268-13.047,1.051-17.996,2.346
			c-4.966,1.309-8.217,2.227-9.781,2.739l-0.783,0.783l-12.517,35.989c-6.26,19.305-12.263,39.12-17.995,59.464
			c-5.735,20.341-10.687,41.207-14.866,62.59c-1.039,3.654-1.957,8.742-2.737,15.256c-0.784,6.531-1.176,12.91-1.176,19.168
			c-1.038,5.222-0.255,12.521,2.349,21.908c2.615,9.39,8.348,17.996,17.212,25.821c8.863,7.822,23.473,12.26,43.815,13.299h7.039
			c13.561-1.564,25.551-6.907,35.991-16.039c10.429-9.119,20.073-20.207,28.947-33.251c1.042,11.479,3.646,20.341,7.825,26.602
			c4.17,6.258,8.608,11.222,13.3,14.863c5.734,4.184,11.737,6.786,17.995,7.825c17.729,2.604,34.293-1.294,49.683-11.734
			c15.38-10.429,28.95-22.947,40.687-37.556c11.735-14.597,21.636-29.205,29.731-43.814c8.08-14.596,13.691-24.769,16.82-30.514
			c6.261-11.993,10.171-22.811,11.735-32.471C718.229,679.698,715.1,673.048,707.276,669.393z"/>
		<path fill="#FFFFFF" d="M1110.984,904.895c-3.657,0-7.825-1.309-12.521-3.912c-4.691-2.618-9.132-6.786-13.3-12.519
			c-4.18-5.747-7.7-13.57-10.562-23.473c-2.874-9.915-4.303-22.164-4.303-36.772c0-31.811,2.212-55.415,6.647-70.807
			c4.429-15.38,7.434-25.429,9.001-30.123c6.258-20.856,13.423-42.504,21.516-64.938c8.078-22.422,15.903-43.816,23.471-64.157
			c7.557-20.342,13.949-38.853,19.17-55.549c5.207-16.689,7.823-30.246,7.823-40.685c0-8.864-1.054-17.606-3.132-26.213
			c-2.088-8.605-5.744-16.428-10.951-23.47c-5.222-7.044-11.869-12.776-19.952-17.215c-8.093-4.426-17.874-6.649-29.341-6.649
			c-11.478,0-23.74,2.615-36.77,7.822c-13.047,5.222-26.48,12.521-40.293,21.908c-13.828,9.39-27.653,20.478-41.469,33.251
			c-13.827,12.787-27.261,26.994-40.295,42.642c4.17-11.468,7.691-23.337,10.564-35.6c2.861-12.248,3.776-25.158,2.74-38.729
			c-1.567-16.161-5.613-29.534-12.13-40.109c-6.528-10.563-14.475-19.06-23.861-25.488c-9.39-6.419-19.563-11.041-30.515-13.875
			c-10.954-2.824-21.395-4.242-31.295-4.242c-17.74,0-37.556,2.971-59.464,8.887c-21.908,5.931-42.249,14.425-61.028,25.5
			c-18.773,11.076-34.3,24.683-46.551,40.797c-12.25,16.123-17.604,34.352-16.039,54.693c1.051,9.39,3.266,17.348,6.649,23.861
			c3.399,6.531,7.166,11.872,11.347,16.039c4.695,5.222,10.17,9.135,16.431,11.738c2.604-5.207,7.431-12.385,14.472-21.517
			c7.045-9.119,16.164-18.776,27.386-28.947c11.209-10.173,24.646-20.21,40.293-30.122c15.649-9.903,33.375-18.509,53.203-25.82
			c5.732-2.078,13.031-4.561,21.908-7.434c8.861-2.859,16.16-4.302,21.905-4.302c4.168,0,6.516,1.309,7.041,3.912
			c0,3.129-0.917,7.567-2.736,13.3c-1.835,5.747-4.049,12.005-6.652,18.776c-2.613,6.786-5.609,13.694-8.996,20.735
			c-3.398,7.042-6.139,13.434-8.217,19.169c-8.873,20.341-19.691,43.3-32.468,68.851c-12.788,25.563-24.781,52.298-35.991,80.196
			c-11.222,27.908-20.344,56.074-27.385,84.496c-7.039,28.436-9.523,55.685-7.431,81.763c1.564,15.12,5.478,27.383,11.735,36.772
			c6.26,9.387,13.423,16.687,21.516,21.905c8.081,5.21,16.553,8.606,25.43,10.171c8.861,1.567,16.941,2.348,24.253,2.348
			c3.129,0,5.99,0,8.606,0c2.604,0,4.951-0.27,7.041-0.78c2.078-0.528,4.168-1.054,6.258-1.567
			c-12.005-17.212-18.776-37.298-20.341-60.244c-1.051-13.029-0.659-26.6,1.173-40.683c1.822-14.086,4.56-28.68,8.217-43.816
			c9.902-35.988,24.12-68.459,42.641-97.408c18.51-28.947,37.945-53.851,58.286-74.72c20.344-20.854,39.903-36.894,58.681-48.115
			c18.779-11.21,33.643-16.82,44.597-16.82c10.429,0,15.647,4.693,15.647,14.08c0,3.657-0.659,7.437-1.956,11.346
			c-1.307,3.913-3.007,8.743-5.085,14.476c-16.699,43.3-31.295,88.681-43.813,136.137c-12.519,47.468-20.867,93.888-25.037,139.266
			c0,21.906,2.077,39.51,6.258,52.812c4.17,13.303,9.647,23.595,16.434,30.906c6.771,7.297,14.594,12.248,23.47,14.864
			c8.864,2.603,17.729,3.912,26.602,3.912c3.129,0,7.555-0.271,13.3-0.783c5.735-0.526,11.346-1.956,16.823-4.302
			c5.477-2.349,10.291-5.611,14.475-9.779c4.168-4.183,6.258-10.173,6.258-17.995c-0.525,0.513-1.309,1.039-2.348,1.564
			C1116.975,904.625,1114.626,904.895,1110.984,904.895z"/>
		<path fill="#FFFFFF" d="M1202.517,563.376c4.693,3.912,11.737,6.395,21.124,7.433c10.429,1.567,18.777,0.528,25.037-3.129
			c6.261-3.642,10.954-7.297,14.083-10.951c2.078-2.078,3.913-4.696,5.478-7.825c1.039-2.078,1.822-3.912,2.346-5.477l11.737-26.602
			c2.077-5.735,1.564-10.171-1.564-13.3c-1.564-1.564-3.399-2.861-5.478-3.913c-12.005-4.17-23.349-5.868-34.034-5.087
			c-10.696,0.783-19.169,1.7-25.427,2.739c-2.618,0.525-5.222,2.09-7.825,4.696c-1.051,1.049-1.835,2.09-2.348,3.129
			c-2.616,5.745-4.827,10.951-6.647,15.647c-1.835,4.693-3.523,9.387-5.088,14.083l-1.564,6.261
			c-1.051,3.652-0.783,7.039,0.783,10.168C1194.693,555.432,1197.822,559.466,1202.517,563.376z"/>
		<path fill="#FFFFFF" d="M1787.734,669.393c-4.693-2.08-8.874-2.604-12.517-1.564c-3.657,1.049-6.786,2.613-9.39,4.693
			c-3.131,2.091-5.744,5.22-7.822,9.39c-3.657,5.745-7.825,12.261-12.521,19.561c-4.695,7.309-9.266,14.608-13.691,21.905
			c-4.438,7.312-8.742,14.083-12.907,20.344c-4.183,6.258-7.825,11.222-10.956,14.864c-3.127,3.654-5.745,6.002-7.822,7.041
			c-2.091,1.052-3.913,1.564-5.478,1.564c-2.091,0-3.399-0.783-3.913-2.348c-2.09-1.564-3.008-5.207-2.739-10.951
			c0.258-5.735,1.433-12.643,3.522-20.735c2.078-8.081,4.816-17.076,8.215-26.991c3.387-9.903,7.166-20.076,11.346-30.515
			c9.387-23.985,20.6-50.584,33.641-79.802c-10.438-4.696-20.475-7.691-30.119-9c-9.658-1.295-18.13-1.431-25.43-0.392
			c-8.876,1.054-16.956,2.873-24.253,5.479l-6.261,14.081c-3.654-4.168-8.998-7.946-16.037-11.344
			c-7.044-3.387-17.348-5.085-30.905-5.085c-12.006,0-24.524,1.698-37.554,5.085c-13.047,3.397-25.699,9.658-37.947,18.779
			c-12.261,9.13-23.742,21.393-34.427,36.772c-5.365,7.721-10.368,16.527-15.01,26.416c-1.242,1.521-2.373,3.268-3.37,5.271
			c-4.695,7.31-10.173,15.781-16.431,25.427c-6.258,9.659-12.261,18.91-17.993,27.774l-8.608,11.734
			c-4.693,5.748-10.05,12.006-16.04,18.779c-6,6.786-12.652,12.519-19.951,17.212l-15.647,7.042
			c-7.31,3.132-14.864,5.222-22.689,6.261c-7.822,1.051-15.915,0.268-24.253-2.349l-3.913-1.564
			c-1.052-0.513-2.09-1.039-3.129-1.564c-1.052-0.513-2.09-1.294-3.129-2.348c-3.657-2.078-6.528-5.207-8.606-9.388
			c-3.129-6.26-4.695-10.686-4.695-13.302c-0.526-4.693-0.39-9.645,0.392-14.866c0.783-5.207,1.686-9.903,2.739-14.081
			c1.564-5.209,3.129-10.173,4.693-14.866c5.207-14.597,11.346-27.641,18.388-39.12c7.039-11.467,14.083-20.732,21.124-27.774
			c7.042-7.041,14.084-11.859,21.123-14.475c7.044-2.604,13.168-2.604,18.387,0c4.696,2.615,7.163,7.825,7.434,15.647
			c0.258,7.825-0.66,15.918-2.737,24.254c0,1.054,0.255,2.092,0.781,3.131c0.513,1.052,2.077,1.564,4.696,1.564
			c0.513,0,0.902-0.124,1.17-0.392c0.258-0.255,0.649-0.392,1.175-0.392c4.171-1.039,9.253-2.737,15.259-5.085
			c5.99-2.349,11.856-6.908,17.604-13.691c1.563-2.604,2.47-5.085,2.737-7.434c0.258-2.348,0.392-4.034,0.392-5.085
			c-0.525-2.604-0.917-5.599-1.175-8.998c-0.269-3.387-0.915-6.907-1.954-10.563v-0.78c-1.054-3.132-1.564-4.952-1.564-5.478
			c-4.183-11.995-10.173-20.599-17.996-25.82c-7.824-5.209-14.085-8.336-18.778-9.388c-6.259-1.566-13.044-2.348-20.341-2.348
			c-12.006,0-24.524,1.698-37.557,5.085c-13.044,3.397-25.696,9.658-37.947,18.779c-12.26,9.13-23.74,21.393-34.424,36.772
			c-5.968,8.584-11.467,18.556-16.537,29.817c-0.359,0.609-0.727,1.205-1.059,1.869c-4.181,5.745-8.482,12.261-12.908,19.561
			c-4.438,7.309-9,14.608-13.691,21.905c-4.696,7.312-9.135,14.083-13.303,20.344c-4.18,6.258-7.822,11.222-10.953,14.864
			c-3.129,3.654-5.745,6.002-7.825,7.041c-2.091,1.052-3.91,1.564-5.478,1.564c-2.087,0-3.396-0.783-3.91-2.348
			c-2.09-1.564-2.873-5.207-2.348-10.951c0.514-5.735,1.822-12.643,3.912-20.735c2.078-8.081,4.815-17.076,8.215-26.991
			c3.387-9.903,7.163-20.076,11.344-30.515c9.389-23.985,20.599-50.584,33.646-79.802c-10.441-4.696-20.478-7.691-30.125-9
			c-9.657-1.295-18.13-1.431-25.427-0.392c-8.873,1.054-17.212,2.873-25.037,5.479c-10.951,26.6-19.828,49.425-26.602,68.46
			c-6.771,19.046-11.992,35.086-15.645,48.115c-4.696,15.134-7.825,28.168-9.39,39.12c-5.735,22.959-7.044,40.82-3.913,53.595
			c3.129,12.786,7.567,22.567,13.303,29.341c6.783,7.823,15.377,12.787,25.818,14.864c17.725,2.604,34.153-1.294,49.287-11.734
			c15.125-10.429,28.561-22.947,40.296-37.556c0.642-0.799,1.255-1.597,1.884-2.393c2.098,11.137,6.814,21.067,14.146,29.774
			c0,0.526,0.271,0.784,0.784,0.784c6.26,7.309,13.56,12.786,21.907,16.429c8.339,3.656,16.429,6.518,24.254,8.608
			c8.861,2.077,17.995,3.387,27.383,3.912c7.825,0.514,15.122,0.514,21.907,0l17.213-2.348c14.596-3.129,27.898-8.339,39.903-15.647
			c11.99-7.3,22.689-15.125,32.079-23.473c7.81-6.938,14.702-13.977,20.71-21.103c0.561,3.124,1.195,6.246,1.974,9.365
			c2.088,8.351,5.611,15.783,10.563,22.3c4.961,6.527,11.599,12.005,19.949,16.428c8.338,4.441,19.034,7.166,32.078,8.217
			c19.816,1.564,36.247-1.956,49.291-10.562c13.032-8.606,23.202-18.901,30.514-30.906c2.078,8.876,5.344,16.039,9.779,21.517
			c4.426,5.479,8.73,9.523,12.91,12.127c5.207,3.131,10.429,5.221,15.65,6.26c17.725,2.604,34.154-1.294,49.288-11.734
			c15.122-10.429,30.706-31.411,42.441-46.02c11.737-14.597,19.491-20.741,27.585-35.351c8.08-14.596-6.664-15.693-3.535-21.438
			c6.773-11.993,31.176-31.886,32.482-41.546C1798.029,679.698,1795.033,673.048,1787.734,669.393z M1633.212,661.568
			c-0.268,5.222-0.917,10.563-1.958,16.04c-1.049,5.477-2.346,10.562-3.91,15.256l-3.913,13.302c-0.525,0.523-0.78,1.307-0.78,2.346
			v0.783c-5.748,16.699-11.738,30.122-17.996,40.293c-6.261,10.173-12.396,17.995-18.387,23.473
			c-6.001,5.477-11.735,8.998-17.213,10.563c-5.477,1.564-10.563,1.834-15.256,0.78c-7.312-1.038-11.869-4.951-13.693-11.734
			c-1.832-6.771-2.225-13.815-1.17-21.125c1.036-8.863,3.382-18.776,7.039-29.73c5.206-14.597,11.343-27.641,18.387-39.12
			c7.042-11.467,14.205-20.732,21.517-27.774c7.297-7.041,14.339-11.859,21.124-14.475c6.771-2.604,13.029-2.604,18.777,0
			c3.129,1.564,5.209,4.183,6.258,7.825C1633.078,651.923,1633.471,656.362,1633.212,661.568z"/>
	</g>
</g>
</svg>
