<?xml version="1.0" encoding="utf-8"?>
<!-- Generator: Adobe Illustrator 16.0.0, SVG Export Plug-In . SVG Version: 6.00 Build 0)  -->
<!DOCTYPE svg PUBLIC "-//W3C//DTD SVG 1.1//EN" "http://www.w3.org/Graphics/SVG/1.1/DTD/svg11.dtd">
<svg version="1.1" id="Capa_1" xmlns="http://www.w3.org/2000/svg" xmlns:xlink="http://www.w3.org/1999/xlink" x="0px" y="0px"
	 width="36px" height="36px" viewBox="7 2 36 36" enable-background="new 7 2 36 36" xml:space="preserve">
<path fill="#FFFFFF" d="M25,10.034c-7.952,0-14.399,4.23-14.399,9.418c0,0.135-0.001,0.505-0.001,0.552
	c0,5.505,5.634,9.963,14.399,9.963c8.818,0,14.401-4.458,14.401-9.961c0-0.193,0-0.304,0-0.553C39.4,14.264,32.953,10.034,25,10.034
	z M38.751,18.408c-3.128,0.697-5.463,1.706-6.048,1.967c-1.366-1.192-4.523-3.937-5.378-4.579c-0.489-0.367-0.821-0.562-1.114-0.648
	c-0.132-0.04-0.314-0.085-0.549-0.085c-0.217,0-0.451,0.039-0.694,0.117c-0.553,0.175-1.103,0.613-1.636,1.036l-0.027,0.022
	c-0.496,0.394-1.008,0.802-1.396,0.889c-0.17,0.038-0.344,0.058-0.517,0.058c-0.436,0-0.825-0.126-0.971-0.313
	c-0.025-0.031-0.01-0.081,0.047-0.152l0.008-0.009l1.201-1.295c0.941-0.942,1.83-1.83,3.877-1.877c0.032,0,0.067-0.002,0.103-0.002
	c1.272,0.001,2.546,0.572,2.688,0.637c1.195,0.583,2.429,0.879,3.668,0.879c1.288,0,2.618-0.319,4.016-0.961
	C37.488,15.319,38.456,16.797,38.751,18.408z M25.003,10.59c4.221,0,7.999,1.21,10.538,3.115c-1.227,0.531-2.397,0.8-3.525,0.8
	c-1.156-0.002-2.311-0.279-3.432-0.826c-0.06-0.028-1.465-0.691-2.928-0.692c-0.038,0-0.076,0.001-0.115,0.002
	c-1.719,0.039-2.687,0.65-3.339,1.185c-0.633,0.015-1.18,0.168-1.665,0.304c-0.435,0.12-0.808,0.224-1.174,0.224
	c-0.15,0-0.421-0.014-0.446-0.014c-0.418-0.013-2.525-0.528-4.206-1.164C17.245,11.723,20.917,10.59,25.003,10.59z M14.213,13.9
	c1.756,0.718,3.887,1.273,4.562,1.316c0.188,0.012,0.388,0.034,0.588,0.034c0.447,0,0.893-0.125,1.325-0.246
	c0.254-0.072,0.537-0.15,0.833-0.207c-0.08,0.078-0.158,0.157-0.238,0.235l-1.22,1.321c-0.097,0.098-0.306,0.356-0.168,0.674
	c0.056,0.129,0.167,0.252,0.321,0.357c0.291,0.195,0.812,0.328,1.296,0.329c0.183,0,0.357-0.018,0.517-0.054
	c0.512-0.114,1.049-0.542,1.617-0.995c0.453-0.36,1.097-0.817,1.59-0.952c0.138-0.037,0.308-0.061,0.443-0.061
	c0.04,0.001,0.079,0.001,0.115,0.007c0.325,0.041,0.639,0.152,1.201,0.574c1.002,0.753,5.438,4.631,5.481,4.671
	c0.003,0.002,0.285,0.245,0.267,0.651c-0.013,0.226-0.137,0.428-0.355,0.566c-0.189,0.119-0.385,0.181-0.582,0.181
	c-0.296,0-0.501-0.14-0.514-0.147c-0.017-0.014-1.536-1.407-2.095-1.875c-0.089-0.074-0.176-0.141-0.263-0.141
	c-0.046,0-0.088,0.02-0.116,0.055c-0.088,0.109,0.011,0.259,0.127,0.357l1.775,1.783c0.002,0.003,0.221,0.208,0.244,0.481
	c0.014,0.295-0.127,0.542-0.422,0.736c-0.208,0.137-0.421,0.207-0.629,0.207c-0.271,0-0.464-0.123-0.506-0.154l-0.255-0.25
	c-0.465-0.459-0.945-0.931-1.297-1.225c-0.086-0.071-0.178-0.138-0.265-0.138c-0.042,0-0.082,0.016-0.111,0.048
	c-0.04,0.045-0.068,0.125,0.032,0.257c0.04,0.055,0.09,0.101,0.09,0.101l1.295,1.455c0.011,0.012,0.267,0.317,0.03,0.62
	l-0.049,0.058c-0.038,0.043-0.08,0.083-0.119,0.117c-0.222,0.182-0.517,0.201-0.633,0.201c-0.063,0-0.124-0.006-0.176-0.015
	c-0.127-0.023-0.213-0.061-0.256-0.109l-0.015-0.016c-0.071-0.072-0.724-0.74-1.264-1.189c-0.07-0.06-0.16-0.135-0.252-0.135
	c-0.045,0-0.086,0.017-0.117,0.052c-0.106,0.117,0.054,0.291,0.121,0.356l1.106,1.217c-0.003,0.012-0.016,0.036-0.043,0.075
	c-0.038,0.054-0.173,0.188-0.574,0.238c-0.048,0.007-0.099,0.011-0.147,0.011c-0.412,0-0.854-0.202-1.08-0.321
	c0.104-0.22,0.156-0.46,0.156-0.7c0-0.91-0.737-1.65-1.646-1.65c-0.02,0-0.04,0-0.059,0.001c0.029-0.414-0.029-1.2-0.836-1.547
	c-0.233-0.1-0.464-0.151-0.688-0.151c-0.177,0-0.346,0.03-0.505,0.089c-0.168-0.324-0.444-0.561-0.808-0.684
	c-0.2-0.069-0.399-0.104-0.591-0.104c-0.336,0-0.646,0.099-0.921,0.295c-0.264-0.328-0.664-0.523-1.084-0.523
	c-0.368,0-0.723,0.147-0.983,0.407c-0.345-0.262-1.708-1.129-5.359-1.958c-0.174-0.039-0.569-0.153-0.819-0.225
	C11.627,16.625,12.668,15.128,14.213,13.9z M20.985,23.403l-0.039-0.035h-0.04c-0.033,0-0.066,0.014-0.111,0.046
	c-0.187,0.13-0.365,0.193-0.546,0.193c-0.099,0-0.201-0.02-0.304-0.061c-0.846-0.328-0.779-1.127-0.738-1.367
	c0.006-0.05-0.006-0.087-0.037-0.112l-0.06-0.049l-0.056,0.054c-0.164,0.159-0.381,0.247-0.607,0.247
	c-0.485-0.002-0.88-0.396-0.879-0.88c0-0.485,0.395-0.878,0.88-0.878c0.438,0,0.811,0.329,0.867,0.768l0.03,0.235l0.13-0.199
	c0.015-0.023,0.37-0.561,1.022-0.561c0.124,0,0.252,0.02,0.381,0.062c0.521,0.158,0.608,0.63,0.623,0.826
	c0.009,0.114,0.091,0.12,0.107,0.12c0.044,0,0.077-0.028,0.101-0.055c0.098-0.102,0.313-0.271,0.646-0.271
	c0.154,0,0.317,0.036,0.485,0.107c0.827,0.355,0.452,1.406,0.448,1.418c-0.071,0.174-0.075,0.251-0.008,0.295l0.033,0.016h0.024
	c0.037,0,0.083-0.017,0.16-0.042c0.112-0.038,0.283-0.097,0.441-0.097h0c0.623,0.008,1.129,0.514,1.129,1.13
	c-0.001,0.622-0.507,1.127-1.13,1.127c-0.608-0.001-1.104-0.475-1.126-1.076c-0.001-0.053-0.006-0.19-0.123-0.19
	c-0.048,0-0.09,0.03-0.137,0.072c-0.134,0.124-0.304,0.251-0.553,0.251c-0.113,0-0.235-0.026-0.364-0.079
	c-0.644-0.26-0.652-0.701-0.626-0.88C21.016,23.491,21.018,23.441,20.985,23.403z M25.003,28.306
	c-7.646,0-13.846-3.966-13.846-8.857c0-0.197,0.014-0.392,0.033-0.585c0.064,0.015,0.668,0.16,0.794,0.188
	c3.73,0.828,4.962,1.69,5.17,1.853c-0.071,0.169-0.108,0.351-0.108,0.536c-0.001,0.77,0.626,1.397,1.396,1.398
	c0.087,0,0.173-0.009,0.256-0.023c0.117,0.567,0.487,0.997,1.054,1.218c0.166,0.062,0.334,0.097,0.499,0.097
	c0.106,0,0.214-0.013,0.318-0.039c0.104,0.265,0.341,0.597,0.868,0.811c0.185,0.074,0.369,0.113,0.548,0.113
	c0.146,0,0.291-0.026,0.427-0.077c0.252,0.616,0.854,1.023,1.522,1.023c0.444,0,0.87-0.182,1.181-0.501
	c0.265,0.148,0.827,0.415,1.395,0.417c0.074,0,0.143-0.008,0.212-0.015c0.563-0.07,0.825-0.291,0.945-0.462
	c0.022-0.03,0.042-0.062,0.059-0.096c0.133,0.039,0.279,0.07,0.446,0.07c0.308,0,0.604-0.104,0.901-0.323
	c0.294-0.211,0.502-0.514,0.532-0.772c0.001-0.004,0.001-0.008,0.002-0.012c0.099,0.021,0.2,0.031,0.302,0.031
	c0.317,0,0.628-0.099,0.927-0.295c0.574-0.376,0.674-0.868,0.666-1.188c0.099,0.02,0.202,0.03,0.305,0.03
	c0.297,0,0.589-0.088,0.867-0.266c0.355-0.229,0.571-0.576,0.603-0.983c0.023-0.274-0.045-0.552-0.191-0.792
	c0.963-0.415,3.157-1.214,5.743-1.798c0.012,0.146,0.017,0.294,0.017,0.442C38.85,24.34,32.651,28.306,25.003,28.306z"/>
</svg>
