<?xml version="1.0" encoding="utf-8"?>
<!-- Generator: Adobe Illustrator 16.0.0, SVG Export Plug-In . SVG Version: 6.00 Build 0)  -->
<!DOCTYPE svg PUBLIC "-//W3C//DTD SVG 1.1//EN" "http://www.w3.org/Graphics/SVG/1.1/DTD/svg11.dtd">
<svg version="1.1" id="Capa_1" xmlns="http://www.w3.org/2000/svg" xmlns:xlink="http://www.w3.org/1999/xlink" x="0px" y="0px"
	 width="36px" height="36px" viewBox="-6 -6 36 36" enable-background="new -6 -6 36 36" xml:space="preserve">
<path fill="#FFFFFF" d="M18.546,13.44c1.08,0,2.031-0.591,2.521-1.483l5.155-9.346c0.533-0.951-0.159-2.131-1.253-2.131H3.657
	L2.303-2.4h-4.708v2.88h2.88l5.184,10.929l-1.944,3.513C2.663,16.853,4.046,19.2,6.234,19.2h17.28v-2.88H6.234l1.584-2.88H18.546z
	 M5.025,3.36h17.497l-3.976,7.2H8.438L5.025,3.36z M6.234,20.64c-1.584,0-2.866,1.297-2.866,2.88c0,1.584,1.282,2.881,2.866,2.881
	c1.584,0,2.88-1.297,2.88-2.881C9.114,21.937,7.819,20.64,6.234,20.64z M20.635,20.64c-1.584,0-2.866,1.297-2.866,2.88
	c0,1.584,1.282,2.881,2.866,2.881c1.583,0,2.88-1.297,2.88-2.881C23.515,21.937,22.218,20.64,20.635,20.64z"/>
</svg>
