<?xml version="1.0" encoding="utf-8"?>
<!-- Generator: Adobe Illustrator 16.0.0, SVG Export Plug-In . SVG Version: 6.00 Build 0)  -->
<!DOCTYPE svg PUBLIC "-//W3C//DTD SVG 1.1//EN" "http://www.w3.org/Graphics/SVG/1.1/DTD/svg11.dtd">
<svg version="1.1" id="Capa_1" xmlns="http://www.w3.org/2000/svg" xmlns:xlink="http://www.w3.org/1999/xlink" x="0px" y="0px"
	 width="36px" height="36px" viewBox="238 238 36 36" enable-background="new 238 238 36 36" xml:space="preserve">
<g>
	<path fill="#FFFFFF" d="M269.154,257.852c-1.491-2.384-4.105-3.832-6.918-3.831c-0.162,0-0.32,0.015-0.479,0.025v-0.025
		c0.265,0,0.479-0.215,0.479-0.48v-1.44h0.96c0.266,0,0.48-0.215,0.48-0.48v-1.44h0.479c0.266,0,0.48-0.215,0.48-0.48
		c0-0.157-0.077-0.304-0.206-0.394l-11.04-7.68c-0.165-0.115-0.383-0.115-0.548,0l-11.04,7.68c-0.218,0.151-0.271,0.45-0.12,0.668
		c0.09,0.129,0.237,0.206,0.394,0.206h0.48v1.44c0,0.265,0.215,0.48,0.48,0.48h0.96v1.44c0,0.265,0.215,0.48,0.48,0.48v5.761
		c-0.265,0-0.48,0.215-0.48,0.479v1.44h-0.96c-0.265,0-0.48,0.215-0.48,0.479v1.44h-0.48c-0.265,0-0.48,0.215-0.48,0.479v1.92
		c0,0.266,0.215,0.48,0.48,0.48h13.248c2.389,3.819,7.421,4.979,11.239,2.591C270.383,266.703,271.543,261.671,269.154,257.852z
		 M253.116,242.605l9.51,6.616h-2.789v-0.96h-0.96v0.96h-0.961v-0.96h-0.96v0.96h-0.959v-0.96h-0.96v0.96h-3.84v-0.96h-0.96v0.96
		h-0.96v-0.96h-0.96v0.96h-0.96v-0.96h-0.96v0.96h-2.79L253.116,242.605z M243.516,251.141v-0.96h19.201v0.96H243.516z
		 M258.396,253.061v-0.96h2.88v0.96H258.396z M260.797,254.021v0.135c-0.663,0.118-1.308,0.319-1.92,0.597v-0.732H260.797z
		 M257.916,254.021v1.248c-1.211,0.758-2.204,1.819-2.879,3.078v-4.326c0.265,0,0.48-0.215,0.48-0.48v-1.44h1.92v1.44
		C257.437,253.806,257.651,254.021,257.916,254.021z M254.211,260.741c-0.056,0.317-0.093,0.638-0.11,0.96h-2.425v-0.96H254.211z
		 M252.156,259.781v-5.761h1.92v5.761H252.156z M251.676,253.061v-0.96h2.88v0.96H251.676z M248.316,259.781v-5.761
		c0.265,0,0.48-0.215,0.48-0.48v-1.44h1.92v1.44c0,0.265,0.215,0.48,0.48,0.48v5.761c-0.265,0-0.48,0.215-0.48,0.479v1.44h-1.92
		v-1.44C248.796,259.996,248.582,259.781,248.316,259.781z M247.836,260.741v0.96h-2.88v-0.96H247.836z M245.437,259.781v-5.761
		h1.92v5.761H245.437z M244.957,253.061v-0.96h2.88v0.96H244.957z M243.516,262.661h10.585c0.018,0.321,0.054,0.643,0.11,0.96
		h-10.695V262.661z M242.556,265.541v-0.96h11.882c0.103,0.327,0.227,0.648,0.371,0.96H242.556z M262.236,269.381
		c-3.977,0-7.2-3.224-7.2-7.2s3.223-7.2,7.2-7.2s7.2,3.224,7.2,7.2C269.432,266.155,266.211,269.376,262.236,269.381z"/>
	<path fill="#FFFFFF" d="M253.116,248.261c1.061,0,1.92-0.86,1.92-1.92c0-1.061-0.86-1.92-1.92-1.92c-1.06,0-1.92,0.86-1.92,1.92
		C251.196,247.401,252.056,248.261,253.116,248.261z M253.116,245.38c0.53,0,0.96,0.43,0.96,0.96c0,0.53-0.43,0.96-0.96,0.96
		c-0.53,0-0.96-0.43-0.96-0.96C252.156,245.811,252.586,245.38,253.116,245.38z"/>
	<path fill="#FFFFFF" d="M262.236,255.941c-3.446,0-6.24,2.793-6.24,6.24s2.793,6.24,6.24,6.24s6.24-2.794,6.24-6.24
		C268.473,258.736,265.682,255.945,262.236,255.941z M262.236,267.461c-2.916,0-5.28-2.364-5.28-5.28s2.364-5.28,5.28-5.28
		s5.28,2.364,5.28,5.28C267.513,265.096,265.151,267.457,262.236,267.461z"/>
	<path fill="#FFFFFF" d="M262.236,259.781c0.53,0,0.96,0.43,0.96,0.96h0.96c-0.003-0.873-0.595-1.634-1.439-1.853v-1.028h-0.96
		v1.028c-1.025,0.264-1.643,1.309-1.378,2.334c0.218,0.847,0.982,1.439,1.857,1.438c0.53,0,0.96,0.43,0.96,0.96
		s-0.43,0.96-0.96,0.96s-0.96-0.43-0.96-0.96h-0.96c0.004,0.872,0.595,1.634,1.44,1.852v1.028h0.96v-1.028
		c1.024-0.264,1.642-1.309,1.378-2.333c-0.218-0.848-0.983-1.439-1.858-1.438c-0.53,0-0.96-0.431-0.96-0.96
		C261.276,260.211,261.706,259.781,262.236,259.781z"/>
</g>
</svg>
