<?xml version="1.0" encoding="utf-8"?>
<!-- Generator: Adobe Illustrator 16.0.0, SVG Export Plug-In . SVG Version: 6.00 Build 0)  -->
<!DOCTYPE svg PUBLIC "-//W3C//DTD SVG 1.1//EN" "http://www.w3.org/Graphics/SVG/1.1/DTD/svg11.dtd">
<svg version="1.1" id="Capa_1" xmlns="http://www.w3.org/2000/svg" xmlns:xlink="http://www.w3.org/1999/xlink" x="0px" y="0px"
	 width="682px" height="682px" viewBox="0 0 682 682" enable-background="new 0 0 682 682" xml:space="preserve">
<path fill="#FFFFFF" d="M581.479,99.112C517.674,35.232,432.818,0.037,342.42,0C156.143,0,4.541,151.598,4.466,337.924
	C4.441,397.486,20.002,455.63,49.577,506.88L1.631,682l179.154-46.995c49.364,26.927,104.939,41.118,161.496,41.135h0.143
	c186.254,0,337.873-151.61,337.945-337.944C680.406,247.892,645.287,162.986,581.479,99.112z M342.42,619.065h-0.117
	c-50.401-0.021-99.832-13.564-142.964-39.153l-10.252-6.088L82.773,601.711l28.376-103.651l-6.681-10.627
	C76.35,442.71,61.502,391.018,61.527,337.945c0.059-154.87,126.068-280.867,281.006-280.867
	c75.025,0.024,145.551,29.279,198.584,82.373c53.033,53.095,82.219,123.666,82.193,198.722
	C623.244,493.055,497.242,619.065,342.42,619.065z M496.494,408.693c-8.443-4.229-49.961-24.653-57.701-27.474
	c-7.734-2.817-13.373-4.222-18.996,4.229c-5.631,8.451-21.811,27.474-26.74,33.104c-4.928,5.636-9.848,6.343-18.293,2.114
	c-8.445-4.225-35.653-13.145-67.909-41.913c-25.101-22.391-42.046-50.042-46.976-58.492c-4.92-8.459-0.041-12.589,3.705-17.234
	c9.142-11.351,18.295-23.251,21.109-28.884c2.818-5.636,1.407-10.569-0.708-14.794c-2.106-4.225-18.994-45.788-26.029-62.701
	c-6.86-16.459-13.815-14.236-19.002-14.494c-4.921-0.245-10.553-0.295-16.185-0.295c-5.627,0-14.777,2.11-22.519,10.568
	c-7.739,8.454-29.551,28.88-29.551,70.444c0,41.563,30.258,81.716,34.479,87.352c4.221,5.637,59.545,90.928,144.251,127.501
	c20.145,8.709,35.873,13.898,48.141,17.79c20.229,6.428,38.633,5.521,53.184,3.349c16.227-2.429,49.957-20.433,57-40.153
	c7.033-19.727,7.033-36.631,4.92-40.157C510.566,415.033,504.936,412.923,496.494,408.693z"/>
</svg>
